PathFileType	4	(X/Y/Z)	Run_200 02
DataRate	CameraRate	NumFrames	NumMarkers	Units	OrigDataRate	OrigDataStartFrame	OrigNumFrames
100	100	4	42	mm	100	96	128
Frame#	Time	RASI			LPSI			RPSI			RTH2			RTH3			LTH1			LTH2			LTH3			RTB1			RTB2			LTB1			LTB2			LTB3			RCAL			RMT5			LCAL			LTOE			LMT5			LACR			RACR			CLAV			C7			RUA1			RUA2			RUA3			RLEL			LUA1			LUA2			LUA3			LLEL			RFAsuperior			RFAradius			RFAulna			LFAsuperior			LFAradius			LFAulna			RTOE			RTH1			LMEL			RTB3			RMEL			LASI			
		X1	Y1	Z1	X2	Y2	Z2	X3	Y3	Z3	X4	Y4	Z4	X5	Y5	Z5	X6	Y6	Z6	X7	Y7	Z7	X8	Y8	Z8	X9	Y9	Z9	X10	Y10	Z10	X11	Y11	Z11	X12	Y12	Z12	X13	Y13	Z13	X14	Y14	Z14	X15	Y15	Z15	X16	Y16	Z16	X17	Y17	Z17	X18	Y18	Z18	X19	Y19	Z19	X20	Y20	Z20	X21	Y21	Z21	X22	Y22	Z22	X23	Y23	Z23	X24	Y24	Z24	X25	Y25	Z25	X26	Y26	Z26	X27	Y27	Z27	X28	Y28	Z28	X29	Y29	Z29	X30	Y30	Z30	X31	Y31	Z31	X32	Y32	Z32	X33	Y33	Z33	X34	Y34	Z34	X35	Y35	Z35	X36	Y36	Z36	X37	Y37	Z37	X38	Y38	Z38	X39	Y39	Z39	X40	Y40	Z40	X41	Y41	Z41	X42	Y42	Z42	

88	1.07	1035.331695	1027.93484	-222.429915	894.242438	1076.858214	-413.950397	881.345569	1076.243722	-301.34909	963.68768	759.689111	-193.400665	1052.120099	624.607857	-196.758563	1017.114525	882.74234	-509.714983	949.094587	727.6639300000001	-477.493369	1012.341226	599.552204	-472.627238	1112.741825	376.579426	-274.94326	1027.323352	346.354871	-205.502223	962.820276	394.22647	-415.409819	831.114786	419.352958	-476.082155	760.067077	316.51876	-428.5059	881.005056	98.162465	-296.60169	1074.090647	50.89087	-222.810756	586.964211	368.052791	-411.538672	668.653043	145.124821	-412.950455	614.595318	175.209691	-506.191037	1030.432912	1515.147386	-492.027103	1032.601866	1480.659476	-165.99659	1092.153368	1453.994312	-297.014533	980.106331	1534.109259	-330.976528	908.773378	1396.103545	-107.672718	939.97164	1329.456155	-82.332908	856.3562470000001	1266.327027	-51.917606	811.985717	1215.878252	-31.676159	933.2352519999999	1419.536464	-551.864196	961.9151429999999	1341.571609	-576.688816	890.466779	1278.61451	-605.81386	871.910852	1214.136569	-626.039517	889.1667169999999	1137.506175	-20.459886	1040.58424	1064.97726	-92.827287	1002.084707	1024.003343	-53.206671	933.783442	1156.238078	-610.888362	1089.068899	1148.168423	-500.351391	1081.370318	1084.351262	-533.981281	1123.877132	72.826508	-318.669224	971.332538	913.597569	-164.058365	846.016494	1196.046252	-540.259453	1034.072919	202.72161	-292.776839	816.890275	1189.248865	-116.869874	1059.728767	1015.260288	-466.697022	
89	1.08	1033.853925	1025.68511	-222.211196	890.706246	1073.820873	-412.942106	879.2194009999999	1073.586064	-300.538027	959.760844	756.971134	-193.489682	1045.967431	620.391047	-197.055018	1014.756003	880.647227	-510.315086	953.1085420000001	724.427419	-476.393043	1021.027405	598.181766	-472.593683	1102.73291	371.533474	-275.740734	1015.888244	343.543377	-205.61655	976.188715	393.651718	-416.410521	844.215291	420.434444	-476.203704	772.949542	317.392678	-429.447974	861.338403	98.73011200000001	-296.611257	1054.135165	50.746733	-222.549313	598.306051	368.521651	-411.688198	683.9538240000001	147.099951	-416.0848	630.896659	178.068928	-509.554205	1028.25771	1511.830705	-491.412943	1032.569191	1476.352369	-165.339141	1091.339198	1450.328151	-297.038546	978.772008	1530.603332	-330.283337	913.502074	1387.115762	-106.106028	946.0646860000001	1321.218097	-81.28106099999999	866.0196120000001	1253.859526	-49.099558	824.379123	1201.885188	-27.511067	929.904525	1416.716643	-549.9139740000001	957.815154	1338.666979	-575.311529	885.916857	1276.148452	-603.3534969999999	866.8538160000001	1211.747664	-623.609692	903.265854	1124.54583	-18.480202	1053.553878	1053.204952	-93.865543	1015.994761	1012.178912	-53.532505	926.186971	1150.240678	-610.66532	1081.650302	1129.80605	-501.407003	1070.682095	1068.596277	-538.3337770000001	1104.065355	72.32326500000001	-318.640351	969.620208	910.959071	-164.030845	841.746856	1193.608585	-537.610201	1018.003301	200.416116	-293.40749	828.075944	1175.656456	-112.878185	1058.182193	1012.994969	-466.537316	
90	1.09	1032.615806	1024.193415	-221.921825	887.725989	1071.681016	-412.064881	877.571601	1072.156949	-299.692581	955.0500520000001	755.337535	-193.342704	1038.577761	617.030475	-197.37178	1012.392183	879.14224	-510.635248	957.365144	722.192301	-475.557379	1029.809498	597.939026	-472.88174	1091.400315	367.596073	-276.934955	1003.985911	341.518856	-205.788295	989.968336	394.162044	-417.313889	857.623318	421.463503	-476.255197	786.762974	317.842211	-430.287254	841.567937	99.384112	-296.650643	1034.1322	50.81789	-222.609567	610.4078029999999	367.476825	-411.850382	701.140316	148.102646	-418.60495	648.301036	179.213489	-512.018471	1026.24953	1509.619874	-490.743658	1033.205683	1472.816699	-164.693259	1090.585895	1447.552271	-297.051013	977.574026	1528.309322	-329.214174	917.924454	1379.656585	-106.305757	952.454823	1314.86758	-80.28600400000001	876.417281	1243.356705	-46.630417	837.591805	1189.607426	-23.872241	926.724289	1415.099374	-548.118065	953.792953	1336.955162	-574.088332	881.055433	1275.394941	-601.091351	861.684262	1211.07394	-621.649288	918.6671270000001	1114.083768	-17.297612	1067.368664	1043.788561	-95.989876	1031.050159	1002.710115	-54.66828	918.76185	1146.681267	-610.80629	1073.212019	1113.304747	-502.687046	1059.263814	1054.610569	-542.365592	1084.163439	72.04369199999999	-318.702808	967.473616	909.245182	-163.955121	837.263704	1192.924606	-535.409793	1001.06364	198.698972	-293.644687	840.152016	1163.759338	-109.457922	1056.875783	1011.49732	-466.318054	
91	1.1	1031.229846	1023.310795	-221.79175	885.273823	1070.741899	-411.435969	876.087274	1071.759269	-299.028703	949.66782	754.656473	-193.110046	1030.36039	614.653728	-197.589615	1010.653539	878.528583	-510.773638	961.865271	721.12429	-475.173843	1038.693717	598.920112	-473.436174	1078.017588	364.498399	-277.729245	990.1125019999999	340.176834	-206.284189	1003.891373	395.949439	-417.882636	871.16797	422.355971	-476.398226	801.35315	317.914807	-430.969529	821.766335	100.074371	-296.766913	1014.072929	50.943784	-222.871826	623.244582	364.882048	-411.927606	719.967127	148.104718	-420.425101	666.505636	178.635575	-513.590066	1024.45989	1508.579229	-490.119649	1034.478209	1470.343441	-164.123353	1089.962372	1445.92992	-297.016222	976.654304	1527.298332	-327.720577	922.028823	1373.580364	-106.941406	959.200596	1310.253674	-79.57312899999999	887.094374	1235.256999	-44.635694	851.003011	1179.81298	-20.881623	923.648638	1414.776497	-546.564135	949.6518600000001	1336.554385	-573.163505	875.5626130000001	1276.391318	-599.065994	855.764079	1212.330005	-620.540198	934.358193	1106.389818	-16.885833	1081.558581	1037.884645	-99.574167	1046.959242	996.539052	-56.975548	910.792454	1145.364752	-611.427748	1063.925914	1100.163751	-504.742293	1047.129134	1043.565624	-546.2041359999999	1064.221668	71.699575	-318.649952	965.01386	908.431119	-163.852819	832.097656	1194.186041	-534.096361	983.2111609999999	197.234713	-293.157341	852.559073	1154.313377	-106.744754	1055.422415	1010.604492	-466.252932	
